<?xml version="1.0" encoding="utf-8"?>
<!-- Svg Vector Icons : http://www.onlinewebfonts.com/icon -->
<!DOCTYPE svg PUBLIC "-//W3C//DTD SVG 1.1//EN" "http://www.w3.org/Graphics/SVG/1.1/DTD/svg11.dtd">
<svg version="1.1" xmlns="http://www.w3.org/2000/svg" xmlns:xlink="http://www.w3.org/1999/xlink" x="0px" y="0px" viewBox="0 0 1000 1000" enable-background="new 0 0 1000 1000" xml:space="preserve">
<metadata> Svg Vector Icons : http://www.onlinewebfonts.com/icon </metadata>
<g><path d="M500,957.9c-19.2,0-37.5-6.3-53-18.3c-26.4-20.4-260-203.7-357.3-356.3C56,530.4,10,458.1,10,356.1c0-173.1,130.1-314,289.9-314c75.4,0,146.4,31.2,200.1,86.8c53.7-55.6,124.7-86.8,200-86.8c159.9,0,290,140.8,290,314c0,102.1-46.1,174.4-79.7,227.2C810.7,739.6,563.5,931.5,553,939.6C537.6,951.5,519.2,957.9,500,957.9z M299.9,107.4C176.1,107.4,75.3,219,75.3,356.1c0,83,36.9,141,69.4,192.1c93,145.8,332,331.9,342.2,339.8c7.8,6.1,18.3,6.1,26.1,0c10.2-7.9,248.7-192.9,342.2-339.8c32.6-51.1,69.5-109,69.5-192.1c0-137.1-100.8-248.7-224.7-248.7c-67.5,0-130.8,33.3-173.8,91.3c-6.2,8.3-15.9,13.2-26.2,13.2l0,0c-10.4,0-20.1-4.9-26.2-13.2C430.8,140.7,367.5,107.4,299.9,107.4z"/></g>
</svg>